<?xml version="1.0" encoding="UTF-8"?>
<!DOCTYPE svg PUBLIC "-//W3C//DTD SVG 1.1//EN" "http://www.w3.org/Graphics/SVG/1.1/DTD/svg11.dtd">
<svg xmlns="http://www.w3.org/2000/svg" version="1.1" width="209px" height="121px" style="shape-rendering:geometricPrecision; text-rendering:geometricPrecision; image-rendering:optimizeQuality; fill-rule:evenodd; clip-rule:evenodd" xmlns:xlink="http://www.w3.org/1999/xlink">
<g><path style="opacity:0.719" fill="#353535" d="M 22.5,6.5 C 21.1634,5.68512 20.1634,4.51845 19.5,3C 14.1771,2.50065 8.84372,2.33398 3.5,2.5C 3.5,40.8333 3.5,79.1667 3.5,117.5C 13.1667,117.5 22.8333,117.5 32.5,117.5C 32.5,117.833 32.5,118.167 32.5,118.5C 22.5,118.5 12.5,118.5 2.5,118.5C 2.5,79.5 2.5,40.5 2.5,1.5C 8.50924,1.33385 14.5092,1.50051 20.5,2C 21.5822,3.32972 22.2488,4.82972 22.5,6.5 Z"/></g>
<g><path style="opacity:1" fill="#010101" d="M 173.5,1.5 C 174.167,1.83333 174.833,2.16667 175.5,2.5C 176.995,4.345 178.662,4.67833 180.5,3.5C 182.368,4.26315 184.035,5.26315 185.5,6.5C 185.973,7.90632 186.973,8.57298 188.5,8.5C 189.167,8.5 189.5,8.83333 189.5,9.5C 190.833,11.5 192.5,13.1667 194.5,14.5C 196.262,15.2623 197.262,16.5956 197.5,18.5C 197.66,20.153 198.326,21.4863 199.5,22.5C 200.401,23.2905 201.068,24.2905 201.5,25.5C 200.957,25.56 200.624,25.8933 200.5,26.5C 201.028,28.3361 201.694,30.0028 202.5,31.5C 204.404,40.3183 202.737,48.3183 197.5,55.5C 194.805,58.4498 195.471,60.7831 199.5,62.5C 200.34,64.8525 201.674,66.8525 203.5,68.5C 204.167,68.5 204.5,68.8333 204.5,69.5C 203.535,70.7211 203.702,72.0544 205,73.5C 205.399,73.2716 205.565,72.9382 205.5,72.5C 207.412,78.5805 207.912,84.9138 207,91.5C 206.495,94.865 205.328,97.865 203.5,100.5C 202.094,100.973 201.427,101.973 201.5,103.5C 199.086,104.911 197.419,106.911 196.5,109.5C 195.738,111.262 194.404,112.262 192.5,112.5C 189.515,113.326 186.849,114.659 184.5,116.5C 182.698,117.458 180.698,118.125 178.5,118.5C 170.684,117.508 162.684,117.174 154.5,117.5C 155.931,115.811 156.764,113.811 157,111.5C 157.654,112.696 158.154,112.696 158.5,111.5C 157.418,109.216 155.752,108.05 153.5,108C 154.167,108.667 154.833,109.333 155.5,110C 152.443,109.893 150.109,111.06 148.5,113.5C 148.709,114.086 149.043,114.586 149.5,115C 147.347,115.099 145.681,115.933 144.5,117.5C 130.656,117.829 116.99,117.496 103.5,116.5C 104.906,116.027 105.573,115.027 105.5,113.5C 106.906,113.027 107.573,112.027 107.5,110.5C 108.906,110.027 109.573,109.027 109.5,107.5C 110.906,107.027 111.573,106.027 111.5,104.5C 111.427,102.973 112.094,101.973 113.5,101.5C 115.262,100.738 116.262,99.4044 116.5,97.5C 135.503,97.6666 154.503,97.4999 173.5,97C 174.416,96.7216 175.082,96.2216 175.5,95.5C 178.167,94.8333 179.833,93.1667 180.5,90.5C 182.285,83.6906 179.951,78.8573 173.5,76C 154.5,75.3333 135.5,75.3333 116.5,76C 114.97,78.352 113.303,80.5187 111.5,82.5C 109.234,84.2173 106.734,85.5506 104,86.5C 102.436,88.6652 102.603,90.3319 104.5,91.5C 103.873,92.4168 103.539,93.4168 103.5,94.5C 98.7698,102.281 93.7698,109.947 88.5,117.5C 78.1828,118.666 67.8494,118.832 57.5,118C 55.1707,115.174 53.5041,112.008 52.5,108.5C 52.3404,106.847 51.6737,105.514 50.5,104.5C 49.5903,101.008 47.9236,98.0078 45.5,95.5C 43.9925,93.8185 42.9925,91.8185 42.5,89.5C 42.3404,87.847 41.6737,86.5137 40.5,85.5C 37.7417,82.322 35.7417,78.6553 34.5,74.5C 34.5386,73.2438 34.0386,72.2438 33,71.5C 32.5001,86.8297 32.3334,102.163 32.5,117.5C 22.8333,117.5 13.1667,117.5 3.5,117.5C 3.5,79.1667 3.5,40.8333 3.5,2.5C 8.84372,2.33398 14.1771,2.50065 19.5,3C 20.1634,4.51845 21.1634,5.68512 22.5,6.5C 23.1667,6.5 23.5,6.83333 23.5,7.5C 22.2848,8.77896 22.6182,9.77896 24.5,10.5C 25.6737,11.5137 26.3404,12.847 26.5,14.5C 26.6596,16.153 27.3263,17.4863 28.5,18.5C 28.7497,20.674 29.7497,22.3406 31.5,23.5C 32.1667,23.5 32.5,23.8333 32.5,24.5C 31.2848,25.779 31.6182,26.779 33.5,27.5C 35.0075,29.1815 36.0075,31.1815 36.5,33.5C 36.427,35.0269 37.0937,36.0269 38.5,36.5C 41.3411,40.8489 43.6745,45.5156 45.5,50.5C 45.7497,52.674 46.7497,54.3406 48.5,55.5C 49.1667,55.5 49.5,55.8333 49.5,56.5C 48.2848,57.779 48.6182,58.779 50.5,59.5C 51.3382,59.8417 51.6716,60.5084 51.5,61.5C 51.4226,62.7498 50.756,63.5831 49.5,64C 49.5012,65.3988 49.8346,66.8988 50.5,68.5C 49.8333,69.5 49.1667,70.5 48.5,71.5C 51.6752,73.0911 55.0085,74.0911 58.5,74.5C 59.6737,75.5137 60.3404,76.847 60.5,78.5C 60.7497,80.674 61.7497,82.3406 63.5,83.5C 64.1667,83.5 64.5,83.8333 64.5,84.5C 63.2848,85.779 63.6182,86.779 65.5,87.5C 66.6737,88.5137 67.3404,89.847 67.5,91.5C 68.295,94.4234 69.6284,97.0901 71.5,99.5C 72.9185,98.9953 73.5852,97.9953 73.5,96.5C 74.9063,96.0269 75.573,95.0269 75.5,93.5C 76.9063,93.0269 77.573,92.0269 77.5,90.5C 78.9063,90.0269 79.573,89.0269 79.5,87.5C 80.9063,87.0269 81.573,86.0269 81.5,84.5C 83.8218,83.1979 85.1551,81.1979 85.5,78.5C 88.6866,75.4693 91.3532,71.9693 93.5,68C 93.2716,67.6012 92.9382,67.4346 92.5,67.5C 94.0252,64.437 96.0252,61.7703 98.5,59.5C 99.9063,59.0269 100.573,58.0269 100.5,56.5C 101.34,54.1475 102.674,52.1475 104.5,50.5C 126.598,49.8435 148.598,49.1769 170.5,48.5C 172.027,48.573 173.027,47.9063 173.5,46.5C 177.5,41.1667 177.5,35.8333 173.5,30.5C 172.779,28.6182 171.779,28.2848 170.5,29.5C 169.833,29.5 169.5,29.1667 169.5,28.5C 158.505,27.8335 147.338,27.5001 136,27.5C 124.479,27.5011 113.313,28.1678 102.5,29.5C 101.094,29.9731 100.427,30.9731 100.5,32.5C 99.0937,32.9731 98.427,33.9731 98.5,35.5C 98.5,36.1667 98.1667,36.5 97.5,36.5C 95.0499,38.6291 93.3833,41.2957 92.5,44.5C 92.573,46.0269 91.9063,47.0269 90.5,47.5C 88.1782,48.8021 86.8449,50.8021 86.5,53.5C 82.219,60.1314 77.8857,66.7981 73.5,73.5C 71.0641,70.9646 69.3974,67.9646 68.5,64.5C 68.573,62.9731 67.9063,61.9731 66.5,61.5C 65.6618,61.1583 65.3284,60.4916 65.5,59.5C 65.56,58.9569 65.8933,58.6236 66.5,58.5C 71.5,62.1667 72.1667,61.5 68.5,56.5C 68.8333,56.1667 69.1667,55.8333 69.5,55.5C 73.0565,58.4808 75.2231,57.8141 76,53.5C 72.6845,56.2613 71.5178,55.5946 72.5,51.5C 73.5174,54.028 74.6841,54.028 76,51.5C 79.2061,52.9511 80.8728,51.9511 81,48.5C 80.1627,50.0074 78.9961,50.5074 77.5,50C 78.6667,48.8333 79.8333,47.6667 81,46.5C 82.3333,47.8333 83.6667,49.1667 85,50.5C 86.8241,49.2513 86.6574,48.0847 84.5,47C 86.0037,45.5093 86.8371,43.676 87,41.5C 87.414,41.9574 87.914,42.2907 88.5,42.5C 89.5,41.5 90.5,40.5 91.5,39.5C 91.2907,38.914 90.9574,38.414 90.5,38C 95.7937,37.1822 95.7937,36.6822 90.5,36.5C 90.7746,31.7797 89.9412,31.4463 88,35.5C 86.7212,33.0629 85.2212,32.5629 83.5,34C 86.3249,35.4737 86.6582,36.9737 84.5,38.5C 84.7093,39.086 85.0426,39.586 85.5,40C 82.6762,40.2279 80.3429,41.3946 78.5,43.5C 78.7093,44.086 79.0426,44.586 79.5,45C 75.5408,44.7913 73.8742,46.6246 74.5,50.5C 73.1266,50.3433 71.7932,50.51 70.5,51C 68.6667,53.1667 66.8333,55.3333 65,57.5C 64.7216,56.5842 64.2216,55.9175 63.5,55.5C 63.3404,53.847 62.6737,52.5137 61.5,51.5C 56.6618,43.8271 52.3285,35.8271 48.5,27.5C 48.3404,25.847 47.6737,24.5137 46.5,23.5C 46.3404,21.847 45.6737,20.5137 44.5,19.5C 41.7417,16.322 39.7417,12.6553 38.5,8.5C 38.1231,6.74203 37.4565,5.07536 36.5,3.5C 82.3315,2.83333 127.998,2.16667 173.5,1.5 Z"/></g>
<g><path style="opacity:0.925" fill="#232323" d="M 175.5,2.5 C 177.216,2.62867 178.883,2.962 180.5,3.5C 178.662,4.67833 176.995,4.345 175.5,2.5 Z"/></g>
<g><path style="opacity:0.488" fill="#2b2b2b" d="M 173.5,1.5 C 127.998,2.16667 82.3315,2.83333 36.5,3.5C 37.4565,5.07536 38.1231,6.74203 38.5,8.5C 36.6944,6.91064 35.3611,4.91064 34.5,2.5C 80.8285,1.50007 127.162,1.16674 173.5,1.5 Z"/></g>
<g><path style="opacity:0.494" fill="#252525" d="M 185.5,6.5 C 187.027,6.42702 188.027,7.09368 188.5,8.5C 186.973,8.57298 185.973,7.90632 185.5,6.5 Z"/></g>
<g><path style="opacity:0.886" fill="#242424" d="M 23.5,7.5 C 24.1098,8.39105 24.4431,9.39105 24.5,10.5C 22.6182,9.77896 22.2848,8.77896 23.5,7.5 Z"/></g>
<g><path style="opacity:0.051" fill="#202020" d="M 189.5,9.5 C 192.167,10.1667 193.833,11.8333 194.5,14.5C 192.5,13.1667 190.833,11.5 189.5,9.5 Z"/></g>
<g><path style="opacity:0.784" fill="#282828" d="M 26.5,14.5 C 28.1042,15.287 28.7709,16.6203 28.5,18.5C 27.3263,17.4863 26.6596,16.153 26.5,14.5 Z"/></g>
<g><path style="opacity:0.875" fill="#232323" d="M 28.5,18.5 C 30.2503,19.6594 31.2503,21.326 31.5,23.5C 29.7497,22.3406 28.7497,20.674 28.5,18.5 Z"/></g>
<g><path style="opacity:0.855" fill="#222222" d="M 44.5,19.5 C 45.6737,20.5137 46.3404,21.847 46.5,23.5C 44.8958,22.713 44.2291,21.3797 44.5,19.5 Z"/></g>
<g><path style="opacity:0.8" fill="#262626" d="M 197.5,18.5 C 199.104,19.287 199.771,20.6203 199.5,22.5C 198.326,21.4863 197.66,20.153 197.5,18.5 Z"/></g>
<g><path style="opacity:0.894" fill="#262626" d="M 32.5,24.5 C 33.1098,25.391 33.4431,26.391 33.5,27.5C 31.6182,26.779 31.2848,25.779 32.5,24.5 Z"/></g>
<g><path style="opacity:0.486" fill="#252525" d="M 46.5,23.5 C 47.6737,24.5137 48.3404,25.847 48.5,27.5C 46.8958,26.713 46.2291,25.3797 46.5,23.5 Z"/></g>
<g><path style="opacity:0.925" fill="#242424" d="M 201.5,25.5 C 202.341,27.3792 202.675,29.3792 202.5,31.5C 201.694,30.0028 201.028,28.3361 200.5,26.5C 200.624,25.8933 200.957,25.56 201.5,25.5 Z"/></g>
<g><path style="opacity:0.4" fill="#3c3c3c" d="M 169.5,28.5 C 147.092,28.1779 124.758,28.5113 102.5,29.5C 113.313,28.1678 124.479,27.5011 136,27.5C 147.338,27.5001 158.505,27.8335 169.5,28.5 Z"/></g>
<g><path style="opacity:0.886" fill="#242424" d="M 170.5,29.5 C 171.779,28.2848 172.779,28.6182 173.5,30.5C 172.391,30.4431 171.391,30.1098 170.5,29.5 Z"/></g>
<g><path style="opacity:0.188" fill="#232323" d="M 102.5,29.5 C 102.573,31.0269 101.906,32.0269 100.5,32.5C 100.427,30.9731 101.094,29.9731 102.5,29.5 Z"/></g>
<g><path style="opacity:0.835" fill="#262626" d="M 36.5,33.5 C 37.9063,33.9731 38.573,34.9731 38.5,36.5C 37.0937,36.0269 36.427,35.0269 36.5,33.5 Z"/></g>
<g><path style="opacity:0.184" fill="#242424" d="M 100.5,32.5 C 100.573,34.0269 99.9063,35.0269 98.5,35.5C 98.427,33.9731 99.0937,32.9731 100.5,32.5 Z"/></g>
<g><path style="opacity:1" fill="#232323" d="M 65.5,59.5 C 63.8958,58.713 63.2291,57.3797 63.5,55.5C 64.2216,55.9175 64.7216,56.5842 65,57.5C 66.8333,55.3333 68.6667,53.1667 70.5,51C 71.7932,50.51 73.1266,50.3433 74.5,50.5C 73.8742,46.6246 75.5408,44.7913 79.5,45C 79.0426,44.586 78.7093,44.086 78.5,43.5C 80.3429,41.3946 82.6762,40.2279 85.5,40C 85.0426,39.586 84.7093,39.086 84.5,38.5C 86.6582,36.9737 86.3249,35.4737 83.5,34C 85.2212,32.5629 86.7212,33.0629 88,35.5C 89.9412,31.4463 90.7746,31.7797 90.5,36.5C 95.7937,36.6822 95.7937,37.1822 90.5,38C 90.9574,38.414 91.2907,38.914 91.5,39.5C 90.5,40.5 89.5,41.5 88.5,42.5C 87.914,42.2907 87.414,41.9574 87,41.5C 86.8371,43.676 86.0037,45.5093 84.5,47C 86.6574,48.0847 86.8241,49.2513 85,50.5C 83.6667,49.1667 82.3333,47.8333 81,46.5C 79.8333,47.6667 78.6667,48.8333 77.5,50C 78.9961,50.5074 80.1627,50.0074 81,48.5C 80.8728,51.9511 79.2061,52.9511 76,51.5C 74.6841,54.028 73.5174,54.028 72.5,51.5C 71.5178,55.5946 72.6845,56.2613 76,53.5C 75.2231,57.8141 73.0565,58.4808 69.5,55.5C 69.1667,55.8333 68.8333,56.1667 68.5,56.5C 72.1667,61.5 71.5,62.1667 66.5,58.5C 65.8933,58.6236 65.56,58.9569 65.5,59.5 Z"/></g>
<g><path style="opacity:0.137" fill="#1f1f1f" d="M 97.5,36.5 C 96.6167,39.7043 94.9501,42.3709 92.5,44.5C 93.3833,41.2957 95.0499,38.6291 97.5,36.5 Z"/></g>
<g><path style="opacity:1" fill="#070707" d="M 82.5,41.5 C 84.4759,42.4271 84.8092,43.7605 83.5,45.5C 81.3576,44.5629 81.0243,43.2296 82.5,41.5 Z"/></g>
<g><path style="opacity:0.824" fill="#252525" d="M 173.5,46.5 C 173.027,47.9063 172.027,48.573 170.5,48.5C 170.973,47.0937 171.973,46.427 173.5,46.5 Z"/></g>
<g><path style="opacity:0.294" fill="#323232" d="M 170.5,48.5 C 148.598,49.1769 126.598,49.8435 104.5,50.5C 126.141,48.5108 148.141,47.8441 170.5,48.5 Z"/></g>
<g><path style="opacity:0.102" fill="#1d1d1d" d="M 90.5,47.5 C 89.6597,49.8525 88.3264,51.8525 86.5,53.5C 86.8449,50.8021 88.1782,48.8021 90.5,47.5 Z"/></g>
<g><path style="opacity:0.831" fill="#232323" d="M 45.5,50.5 C 47.2503,51.6594 48.2503,53.326 48.5,55.5C 46.7497,54.3406 45.7497,52.674 45.5,50.5 Z"/></g>
<g><path style="opacity:0.867" fill="#242424" d="M 61.5,51.5 C 62.6737,52.5137 63.3404,53.847 63.5,55.5C 61.8958,54.713 61.2291,53.3797 61.5,51.5 Z"/></g>
<g><path style="opacity:0.902" fill="#242424" d="M 49.5,56.5 C 50.1098,57.391 50.4431,58.391 50.5,59.5C 48.6182,58.779 48.2848,57.779 49.5,56.5 Z"/></g>
<g><path style="opacity:0.867" fill="#232323" d="M 100.5,56.5 C 100.573,58.0269 99.9063,59.0269 98.5,59.5C 98.427,57.9731 99.0937,56.9731 100.5,56.5 Z"/></g>
<g><path style="opacity:0.133" fill="#222222" d="M 197.5,55.5 C 197.586,56.4959 197.252,57.3292 196.5,58C 198.141,59.129 199.141,60.629 199.5,62.5C 195.471,60.7831 194.805,58.4498 197.5,55.5 Z"/></g>
<g><path style="opacity:0.059" fill="#232323" d="M 66.5,61.5 C 67.9063,61.9731 68.573,62.9731 68.5,64.5C 67.0937,64.0269 66.427,63.0269 66.5,61.5 Z"/></g>
<g><path style="opacity:0.514" fill="#1f1f1f" d="M 199.5,62.5 C 201.822,63.8021 203.155,65.8021 203.5,68.5C 201.674,66.8525 200.34,64.8525 199.5,62.5 Z"/></g>
<g><path style="opacity:0.993" fill="#242424" d="M 51.5,61.5 C 53.588,63.3356 54.9213,65.6689 55.5,68.5C 52.524,67.7733 52.024,68.7733 54,71.5C 54.7083,70.6195 55.5416,69.9528 56.5,69.5C 57.4408,71.0495 58.1075,72.7162 58.5,74.5C 55.0085,74.0911 51.6752,73.0911 48.5,71.5C 49.1667,70.5 49.8333,69.5 50.5,68.5C 49.8346,66.8988 49.5012,65.3988 49.5,64C 50.756,63.5831 51.4226,62.7498 51.5,61.5 Z"/></g>
<g><path style="opacity:0.995" fill="#0b0b0b" d="M 55.5,68.5 C 56.1667,68.5 56.5,68.8333 56.5,69.5C 55.5416,69.9528 54.7083,70.6195 54,71.5C 52.024,68.7733 52.524,67.7733 55.5,68.5 Z"/></g>
<g><path style="opacity:0.5" fill="#1e1e1e" d="M 92.5,67.5 C 92.9382,67.4346 93.2716,67.6012 93.5,68C 91.3532,71.9693 88.6866,75.4693 85.5,78.5C 87.4462,74.5606 89.7795,70.894 92.5,67.5 Z"/></g>
<g><path style="opacity:0.139" fill="#1e1e1e" d="M 34.5,74.5 C 33.8333,89.1667 33.1667,103.833 32.5,118.5C 32.5,118.167 32.5,117.833 32.5,117.5C 32.3334,102.163 32.5001,86.8297 33,71.5C 34.0386,72.2438 34.5386,73.2438 34.5,74.5 Z"/></g>
<g><path style="opacity:0.765" fill="#292929" d="M 204.5,69.5 C 205.11,70.391 205.443,71.391 205.5,72.5C 205.565,72.9382 205.399,73.2716 205,73.5C 203.702,72.0544 203.535,70.7211 204.5,69.5 Z"/></g>
<g><path style="opacity:0.492" fill="#202020" d="M 85.5,78.5 C 85.1551,81.1979 83.8218,83.1979 81.5,84.5C 82.3403,82.1475 83.6736,80.1475 85.5,78.5 Z"/></g>
<g><path style="opacity:0.792" fill="#242424" d="M 60.5,78.5 C 62.2503,79.6594 63.2503,81.326 63.5,83.5C 61.7497,82.3406 60.7497,80.674 60.5,78.5 Z"/></g>
<g><path style="opacity:0.991" fill="#151515" d="M 111.5,82.5 C 109.327,86.8523 106.66,90.8523 103.5,94.5C 103.539,93.4168 103.873,92.4168 104.5,91.5C 102.603,90.3319 102.436,88.6652 104,86.5C 106.734,85.5506 109.234,84.2173 111.5,82.5 Z"/></g>
<g><path style="opacity:0.89" fill="#242424" d="M 64.5,84.5 C 65.1098,85.391 65.4431,86.391 65.5,87.5C 63.6182,86.779 63.2848,85.779 64.5,84.5 Z"/></g>
<g><path style="opacity:0.824" fill="#252525" d="M 81.5,84.5 C 81.573,86.0269 80.9063,87.0269 79.5,87.5C 79.427,85.9731 80.0937,84.9731 81.5,84.5 Z"/></g>
<g><path style="opacity:0.5" fill="#242424" d="M 40.5,85.5 C 41.6737,86.5137 42.3404,87.847 42.5,89.5C 40.8958,88.713 40.2291,87.3797 40.5,85.5 Z"/></g>
<g><path style="opacity:0.843" fill="#242424" d="M 79.5,87.5 C 79.573,89.0269 78.9063,90.0269 77.5,90.5C 77.427,88.9731 78.0937,87.9731 79.5,87.5 Z"/></g>
<g><path style="opacity:0.859" fill="#252525" d="M 77.5,90.5 C 77.573,92.0269 76.9063,93.0269 75.5,93.5C 75.427,91.9731 76.0937,90.9731 77.5,90.5 Z"/></g>
<g><path style="opacity:0.561" fill="#282828" d="M 180.5,90.5 C 179.833,93.1667 178.167,94.8333 175.5,95.5C 176.833,93.5 178.5,91.8333 180.5,90.5 Z"/></g>
<g><path style="opacity:0.882" fill="#232323" d="M 75.5,93.5 C 75.573,95.0269 74.9063,96.0269 73.5,96.5C 73.427,94.9731 74.0937,93.9731 75.5,93.5 Z"/></g>
<g><path style="opacity:0.09" fill="#1f1f1f" d="M 67.5,91.5 C 69.2225,93.2528 70.7225,95.2528 72,97.5C 72.3826,96.944 72.8826,96.6107 73.5,96.5C 73.5852,97.9953 72.9185,98.9953 71.5,99.5C 69.6284,97.0901 68.295,94.4234 67.5,91.5 Z"/></g>
<g><path style="opacity:0.768" fill="#2e2e2e" d="M 175.5,95.5 C 175.082,96.2216 174.416,96.7216 173.5,97C 154.503,97.4999 135.503,97.6666 116.5,97.5C 116.783,96.7109 117.283,96.0442 118,95.5C 137.124,96.804 156.291,96.804 175.5,95.5 Z"/></g>
<g><path style="opacity:0.922" fill="#1f1f1f" d="M 45.5,95.5 C 47.9236,98.0078 49.5903,101.008 50.5,104.5C 48.0764,101.992 46.4097,98.9922 45.5,95.5 Z"/></g>
<g><path style="opacity:0.757" fill="#262626" d="M 116.5,97.5 C 116.262,99.4044 115.262,100.738 113.5,101.5C 113.738,99.5956 114.738,98.2623 116.5,97.5 Z"/></g>
<g><path style="opacity:0.255" fill="#252525" d="M 203.5,100.5 C 203.573,102.027 202.906,103.027 201.5,103.5C 201.427,101.973 202.094,100.973 203.5,100.5 Z"/></g>
<g><path style="opacity:0.847" fill="#242424" d="M 111.5,104.5 C 111.573,106.027 110.906,107.027 109.5,107.5C 109.427,105.973 110.094,104.973 111.5,104.5 Z"/></g>
<g><path style="opacity:1" fill="#232323" d="M 159.5,101.5 C 160.434,102.568 160.768,103.901 160.5,105.5C 165.797,106.032 165.797,106.866 160.5,108C 161.711,108.893 161.711,109.726 160.5,110.5C 157.833,108.5 155.5,106.167 153.5,103.5C 155.329,102.718 156.829,103.384 158,105.5C 158.41,104.099 158.91,102.766 159.5,101.5 Z"/></g>
<g><path style="opacity:0.761" fill="#242424" d="M 50.5,104.5 C 51.6737,105.514 52.3404,106.847 52.5,108.5C 50.8958,107.713 50.2291,106.38 50.5,104.5 Z"/></g>
<g><path style="opacity:0.366" fill="#1d1d1d" d="M 201.5,103.5 C 200.581,106.089 198.914,108.089 196.5,109.5C 197.419,106.911 199.086,104.911 201.5,103.5 Z"/></g>
<g><path style="opacity:0.792" fill="#282828" d="M 109.5,107.5 C 109.573,109.027 108.906,110.027 107.5,110.5C 107.427,108.973 108.094,107.973 109.5,107.5 Z"/></g>
<g><path style="opacity:0.804" fill="#262626" d="M 107.5,110.5 C 107.573,112.027 106.906,113.027 105.5,113.5C 105.427,111.973 106.094,110.973 107.5,110.5 Z"/></g>
<g><path style="opacity:0.824" fill="#252525" d="M 105.5,113.5 C 105.573,115.027 104.906,116.027 103.5,116.5C 103.427,114.973 104.094,113.973 105.5,113.5 Z"/></g>
<g><path style="opacity:0.991" fill="#242424" d="M 154.5,117.5 C 151.167,117.5 147.833,117.5 144.5,117.5C 145.681,115.933 147.347,115.099 149.5,115C 149.043,114.586 148.709,114.086 148.5,113.5C 150.109,111.06 152.443,109.893 155.5,110C 154.833,109.333 154.167,108.667 153.5,108C 155.752,108.05 157.418,109.216 158.5,111.5C 158.154,112.696 157.654,112.696 157,111.5C 156.764,113.811 155.931,115.811 154.5,117.5 Z"/></g>
<g><path style="opacity:1" fill="#080808" d="M 151.5,111.5 C 154.569,111.963 155.069,113.296 153,115.5C 151.812,114.437 151.312,113.103 151.5,111.5 Z"/></g>
<g><path style="opacity:0.031" fill="#1c1c1c" d="M 192.5,112.5 C 190.421,114.873 187.754,116.206 184.5,116.5C 186.849,114.659 189.515,113.326 192.5,112.5 Z"/></g>
<g><path style="opacity:0.586" fill="#3c3c3c" d="M 103.5,116.5 C 116.99,117.496 130.656,117.829 144.5,117.5C 147.833,117.5 151.167,117.5 154.5,117.5C 162.684,117.174 170.684,117.508 178.5,118.5C 153.158,118.833 127.825,118.5 102.5,117.5C 102.624,116.893 102.957,116.56 103.5,116.5 Z"/></g>
</svg>
